<svg width="31" height="30" viewBox="0 0 31 30" fill="none" xmlns="http://www.w3.org/2000/svg">
<path fill-rule="evenodd" clip-rule="evenodd" d="M21.2316 0V0.782879C22.032 1.50552 22.6156 2.44695 22.9143 3.49721H8.29981C5.70392 3.49721 3.56781 5.68939 3.56781 8.35333V11.6969C3.56781 14.3609 5.70392 16.5531 8.29981 16.5531H13.0347H16.9418H21.6789C22.6908 16.5531 23.4557 17.3381 23.4557 18.3765V21.7239C23.4557 22.7623 22.6908 23.5473 21.6789 23.5473H9.36028C8.72832 21.5817 6.91406 20.1461 4.79842 20.1461C2.16477 20.1461 0 22.3706 0 25.0734C0 27.7762 2.16477 30 4.79842 30C6.92199 30 8.74214 28.554 9.3676 26.577H21.6789C24.2747 26.577 26.4079 24.3878 26.4079 21.7239V18.3765C26.4079 15.7126 24.2747 13.5204 21.6789 13.5204H16.9418H13.0347H8.29981C7.28791 13.5204 6.52076 12.7354 6.52076 11.6969V8.35333C6.52076 7.31486 7.28791 6.52684 8.29981 6.52684H22.9632C22.6851 7.65398 22.0815 8.66852 21.2316 9.43737V10.0247L31 5.012L21.2316 0ZM4.79842 23.1787C5.83578 23.1787 6.64683 24.0088 6.64683 25.0734C6.64683 26.138 5.83578 26.9703 4.79842 26.9703C3.76102 26.9703 2.95219 26.138 2.95219 25.0734C2.95219 24.0088 3.76102 23.1787 4.79842 23.1787Z" fill="#00838F"/>
</svg>
