<?xml version="1.0" encoding="UTF-8" standalone="no" ?>
<!DOCTYPE svg PUBLIC "-//W3C//DTD SVG 1.1//EN" "http://www.w3.org/Graphics/SVG/1.1/DTD/svg11.dtd">
<svg xmlns="http://www.w3.org/2000/svg" xmlns:xlink="http://www.w3.org/1999/xlink" version="1.1" width="1080" height="350" viewBox="0 0 1080 350" xml:space="preserve">
<desc>Created with Fabric.js 5.2.4</desc>
<defs>
</defs>
<rect x="0" y="0" width="100%" height="100%" fill="transparent"></rect>
<g transform="matrix(1 0 0 1 540 175)" id="0380a496-005a-48a5-a91e-a397b777b57e"  >
<rect style="stroke: none; stroke-width: 1; stroke-dasharray: none; stroke-linecap: butt; stroke-dashoffset: 0; stroke-linejoin: miter; stroke-miterlimit: 4; fill: rgb(255,255,255); fill-rule: nonzero; opacity: 1; visibility: hidden;" vector-effect="non-scaling-stroke"  x="-540" y="-175" rx="0" ry="0" width="1080" height="350" />
</g>
<g transform="matrix(Infinity NaN NaN Infinity 0 0)" id="519a9a56-a1fa-490b-b2c8-e8e159eaf708"  >
</g>
<g transform="matrix(0.13 0 0 0.17 540 175)"  >
<g style="" vector-effect="non-scaling-stroke"   >
		<g transform="matrix(0.13 0 0 -0.13 -3574.26 -227.83)"  >
<path style="stroke: none; stroke-width: 1; stroke-dasharray: none; stroke-linecap: butt; stroke-dashoffset: 0; stroke-linejoin: miter; stroke-miterlimit: 4; fill: rgb(255,255,255); fill-rule: nonzero; opacity: 1;" vector-effect="non-scaling-stroke"  transform=" translate(-4440.76, -12375)" d="M 3120 16353 C 3101 16352 3036 16345 2975 16340 C 2404 16285 1880 16083 1485 15763 C 1373 15672 1208 15509 1129 15410 C 898 15122 726 14735 646 14323 C 572 13943 568 13822 573 12235 C 576 11073 579 10877 593 10760 C 644 10339 728 10038 876 9741 C 995 9502 1121 9327 1305 9145 C 1741 8715 2323 8466 3045 8400 C 3115 8394 4092 8390 5733 8390 L 8310 8390 L 8310 9290 L 8310 10190 L 6045 10190 C 4511 10190 3748 10193 3682 10201 C 3461 10225 3234 10306 3045 10428 C 2739 10625 2531 10907 2481 11194 C 2474 11233 2470 11636 2470 12377 C 2470 13362 2472 13510 2486 13577 C 2540 13838 2739 14119 2991 14291 C 3099 14364 3317 14465 3450 14503 C 3636 14557 3481 14553 5993 14557 L 8310 14561 L 8310 15460 L 8310 16360 L 5733 16358 C 4315 16358 3139 16355 3120 16353 z" stroke-linecap="round" />
</g>
		<g transform="matrix(0.13 0 0 -0.13 -2439.03 -227.83)"  >
<path style="stroke: none; stroke-width: 1; stroke-dasharray: none; stroke-linecap: butt; stroke-dashoffset: 0; stroke-linejoin: miter; stroke-miterlimit: 4; fill: rgb(255,255,255); fill-rule: nonzero; opacity: 1;" vector-effect="non-scaling-stroke"  transform=" translate(-12955.05, -12375)" d="M 8920 12375 L 8920 8390 L 9870 8390 L 10820 8390 L 10820 9865 L 10820 11340 L 12688 11340 C 14541 11340 14556 11340 14630 11319 C 14735 11291 14843 11235 14906 11177 C 14966 11122 15013 11037 15052 10910 L 15075 10835 L 15078 9613 L 15080 8390 L 16035 8390 L 16990 8390 L 16990 9643 C 16990 11126 16986 11215 16910 11450 C 16835 11680 16748 11809 16497 12059 L 16332 12223 L 16437 12343 C 16691 12637 16824 12859 16903 13120 C 16946 13262 16967 13382 16980 13570 C 17055 14648 16710 15526 16035 15976 C 15745 16169 15437 16273 14950 16342 C 14886 16351 14143 16355 11893 16357 L 8920 16360 L 8920 12375 z M 14645 14537 C 14755 14510 14830 14468 14913 14386 C 15021 14279 15080 14146 15101 13963 C 15122 13776 15094 13593 15023 13457 C 14953 13324 14802 13200 14666 13164 C 14624 13153 14290 13150 12718 13150 L 10820 13150 L 10820 13855 L 10820 14561 L 12698 14557 C 14421 14554 14581 14553 14645 14537 z" stroke-linecap="round" />
</g>
		<g transform="matrix(0.13 0 0 -0.13 -1303.37 -227.83)"  >
<path style="stroke: none; stroke-width: 1; stroke-dasharray: none; stroke-linecap: butt; stroke-dashoffset: 0; stroke-linejoin: miter; stroke-miterlimit: 4; fill: rgb(255,255,255); fill-rule: nonzero; opacity: 1;" vector-effect="non-scaling-stroke"  transform=" translate(-21472.5, -12375)" d="M 20085 16349 C 19458 16295 18930 16098 18510 15762 C 18048 15391 17760 14867 17651 14200 C 17605 13917 17605 13912 17605 12375 C 17605 10841 17605 10839 17651 10551 C 17753 9905 18033 9381 18470 9019 C 18813 8735 19211 8549 19675 8457 C 20001 8392 19777 8396 22693 8393 L 25340 8390 L 25340 9290 L 25340 10190 L 23013 10193 C 20885 10196 20678 10197 20604 10213 C 20236 10289 19862 10524 19682 10794 C 19616 10893 19545 11038 19524 11115 C 19507 11183 19484 11439 19493 11464 C 19499 11479 19744 11480 22420 11480 L 25340 11480 L 25340 12375 L 25340 13270 L 22420 13270 C 19719 13270 19499 13271 19493 13286 C 19484 13311 19507 13566 19526 13635 C 19583 13854 19803 14147 20015 14288 C 20164 14387 20409 14493 20565 14525 C 20609 14534 20704 14545 20775 14550 C 20847 14555 21903 14559 23123 14560 L 25340 14560 L 25340 15460 L 25340 16360 L 22763 16359 C 21345 16358 20140 16353 20085 16349 z" stroke-linecap="round" />
</g>
		<g transform="matrix(0.13 0 0 -0.13 -177.01 -227.83)"  >
<path style="stroke: none; stroke-width: 1; stroke-dasharray: none; stroke-linecap: butt; stroke-dashoffset: 0; stroke-linejoin: miter; stroke-miterlimit: 4; fill: rgb(255,255,255); fill-rule: nonzero; opacity: 1;" vector-effect="non-scaling-stroke"  transform=" translate(-29920.2, -12375)" d="M 28120 16353 C 27450 16304 26907 16073 26534 15677 C 26090 15206 25870 14561 25893 13800 C 25905 13413 25991 13015 26124 12735 C 26267 12434 26484 12161 26722 11982 C 26993 11779 27352 11615 27677 11546 C 27971 11484 27873 11487 29780 11480 C 31652 11473 31559 11476 31699 11426 C 31799 11390 31922 11270 31976 11155 C 32044 11012 32066 10777 32026 10624 C 32004 10540 31948 10439 31888 10374 C 31821 10302 31730 10251 31613 10217 L 31535 10195 L 28743 10192 L 25950 10190 L 25950 9290 L 25950 8390 L 28878 8393 L 31805 8395 L 31945 8418 C 32534 8513 32951 8715 33296 9071 C 33634 9420 33837 9851 33920 10395 C 33948 10573 33958 10979 33940 11156 C 33916 11398 33844 11723 33776 11899 C 33704 12086 33569 12321 33445 12475 C 33284 12677 33048 12863 32770 13008 C 32525 13137 32296 13204 31930 13257 C 31828 13272 31618 13274 30070 13280 C 28457 13285 28320 13287 28265 13303 C 28181 13327 28053 13392 28002 13435 C 27951 13479 27878 13579 27851 13644 C 27819 13718 27796 13871 27803 13965 C 27819 14164 27865 14277 27975 14386 C 28057 14467 28134 14510 28250 14537 C 28320 14553 28498 14554 31108 14557 L 33890 14561 L 33890 15460 L 33890 16360 L 31028 16358 C 29453 16357 28145 16355 28120 16353 z" stroke-linecap="round" />
</g>
		<g transform="matrix(0.13 0 0 -0.13 952.3 -227.83)"  >
<path style="stroke: none; stroke-width: 1; stroke-dasharray: none; stroke-linecap: butt; stroke-dashoffset: 0; stroke-linejoin: miter; stroke-miterlimit: 4; fill: rgb(255,255,255); fill-rule: nonzero; opacity: 1;" vector-effect="non-scaling-stroke"  transform=" translate(-38390, -12375)" d="M 34500 15460 L 34500 14560 L 35970 14560 L 37440 14560 L 37440 11475 L 37440 8390 L 38390 8390 L 39340 8390 L 39340 11475 L 39340 14560 L 40810 14560 L 42280 14560 L 42280 15460 L 42280 16360 L 38390 16360 L 34500 16360 L 34500 15460 z" stroke-linecap="round" />
</g>
		<g transform="matrix(0.13 0 0 -0.13 1902.23 -227.83)"  >
<path style="stroke: none; stroke-width: 1; stroke-dasharray: none; stroke-linecap: butt; stroke-dashoffset: 0; stroke-linejoin: miter; stroke-miterlimit: 4; fill: rgb(255,255,255); fill-rule: nonzero; opacity: 1;" vector-effect="non-scaling-stroke"  transform=" translate(-45514.5, -12375)" d="M 44551 16343 C 44546 16333 43688 14557 42645 12395 C 41601 10234 40739 8448 40729 8428 L 40710 8390 L 41767 8390 L 42825 8391 L 43196 9148 L 43568 9905 L 45519 9908 L 47471 9910 L 47487 9883 C 47495 9867 47661 9527 47855 9125 L 48207 8395 L 49263 8392 L 50319 8390 L 50297 8439 C 50285 8466 49420 10259 48375 12424 L 46475 16359 L 45518 16360 C 44616 16360 44560 16359 44551 16343 z M 46099 12780 L 46626 11695 L 46084 11692 C 45786 11691 45295 11691 44993 11692 L 44444 11695 L 44919 12695 C 45181 13246 45424 13756 45459 13830 L 45523 13965 L 45547 13915 C 45560 13888 45809 13377 46099 12780 z" stroke-linecap="round" />
</g>
		<g transform="matrix(0.13 0 0 -0.13 3186.3 -227.83)"  >
<path style="stroke: none; stroke-width: 1; stroke-dasharray: none; stroke-linecap: butt; stroke-dashoffset: 0; stroke-linejoin: miter; stroke-miterlimit: 4; fill: rgb(255,255,255); fill-rule: nonzero; opacity: 1;" vector-effect="non-scaling-stroke"  transform=" translate(-55145, -12375)" d="M 50870 12375 L 50870 8390 L 51820 8390 L 52770 8390 L 52770 11475 L 52770 14561 L 54543 14558 C 56198 14554 56321 14553 56410 14536 C 56708 14480 57038 14310 57202 14128 C 57373 13939 57449 13812 57497 13635 L 57525 13535 L 57528 10963 L 57530 8390 L 58475 8390 L 59420 8390 L 59417 11143 C 59414 13592 59412 13908 59398 14015 C 59304 14721 59093 15198 58700 15590 C 58500 15789 58312 15923 58045 16055 C 57768 16192 57474 16279 57109 16332 L 56955 16354 L 53913 16357 L 50870 16360 L 50870 12375 z" stroke-linecap="round" />
</g>
		<g transform="matrix(0.13 0 0 -0.13 3964.3 -227.83)"  >
<path style="stroke: none; stroke-width: 1; stroke-dasharray: none; stroke-linecap: butt; stroke-dashoffset: 0; stroke-linejoin: miter; stroke-miterlimit: 4; fill: rgb(255,255,255); fill-rule: nonzero; opacity: 1;" vector-effect="non-scaling-stroke"  transform=" translate(-60980, -12375)" d="M 60030 12375 L 60030 8390 L 60980 8390 L 61930 8390 L 61930 12375 L 61930 16360 L 60980 16360 L 60030 16360 L 60030 12375 z" stroke-linecap="round" />
</g>
		<g transform="matrix(0.13 0 0 -0.13 0 570.03)"  >
<path style="stroke: none; stroke-width: 1; stroke-dasharray: none; stroke-linecap: butt; stroke-dashoffset: 0; stroke-linejoin: miter; stroke-miterlimit: 4; fill: rgb(255,255,255); fill-rule: nonzero; opacity: 1;" vector-effect="non-scaling-stroke"  transform=" translate(-31247.75, -6391.06)" d="M 28885 7799 C 16561 7679 5713 6612 693 5028 C 603 5000 531 4975 533 4974 C 535 4972 651 4993 791 5021 C 1974 5254 3477 5485 5080 5679 C 5812 5768 7189 5916 7455 5935 C 7499 5938 7675 5954 7845 5970 C 12182 6381 17732 6655 24045 6770 C 26567 6816 27725 6825 31250 6825 C 34775 6825 35933 6816 38455 6770 C 44772 6655 50315 6381 54655 5970 C 54826 5954 55001 5938 55045 5935 C 55185 5925 55907 5851 56465 5789 C 58457 5569 60187 5316 61640 5034 C 61797 5004 61936 4977 61950 4974 C 62060 4954 61422 5149 60995 5266 C 56230 6570 47375 7485 37065 7740 C 34535 7802 31474 7825 28885 7799 z" stroke-linecap="round" />
</g>
</g>
</g>
</svg>