<svg width="24" height="24" viewBox="0 0 24 24" fill="none" xmlns="http://www.w3.org/2000/svg">
<path d="M8 17H16M11.0177 2.76403L4.23539 8.03916C3.78202 8.39178 3.55534 8.56809 3.39203 8.78889C3.24737 8.98447 3.1396 9.20481 3.07403 9.43908C3 9.70355 3 9.99073 3 10.5651V17.8C3 18.9201 3 19.4802 3.21799 19.908C3.40973 20.2843 3.71569 20.5903 4.09202 20.782C4.51984 21 5.07989 21 6.2 21H17.8C18.9201 21 19.4802 21 19.908 20.782C20.2843 20.5903 20.5903 20.2843 20.782 19.908C21 19.4802 21 18.9201 21 17.8V10.5651C21 9.99073 21 9.70355 20.926 9.43908C20.8604 9.20481 20.7526 8.98447 20.608 8.78889C20.4447 8.56809 20.218 8.39178 19.7646 8.03916L12.9823 2.76403C12.631 2.49078 12.4553 2.35415 12.2613 2.30163C12.0902 2.25529 11.9098 2.25529 11.7387 2.30163C11.5447 2.35415 11.369 2.49078 11.0177 2.76403Z" stroke="#422B6C" stroke-width="2" stroke-linecap="round" stroke-linejoin="round"/>
</svg>
