<svg width="42" height="42" viewBox="0 0 42 42" fill="none" xmlns="http://www.w3.org/2000/svg">
<path fill-rule="evenodd" clip-rule="evenodd" d="M28.2316 6V6.78288C29.032 7.50552 29.6156 8.44695 29.9143 9.49721H15.2998C12.7039 9.49721 10.5678 11.6894 10.5678 14.3533V17.6969C10.5678 20.3609 12.7039 22.5531 15.2998 22.5531H20.0347H23.9418H28.6789C29.6908 22.5531 30.4557 23.3381 30.4557 24.3765V27.7239C30.4557 28.7623 29.6908 29.5473 28.6789 29.5473H16.3603C15.7283 27.5817 13.9141 26.1461 11.7984 26.1461C9.16477 26.1461 7 28.3706 7 31.0734C7 33.7762 9.16477 36 11.7984 36C13.922 36 15.7421 34.554 16.3676 32.577H28.6789C31.2747 32.577 33.4079 30.3878 33.4079 27.7239V24.3765C33.4079 21.7126 31.2747 19.5204 28.6789 19.5204H23.9418H20.0347H15.2998C14.2879 19.5204 13.5208 18.7354 13.5208 17.6969V14.3533C13.5208 13.3149 14.2879 12.5268 15.2998 12.5268H29.9632C29.6851 13.654 29.0815 14.6685 28.2316 15.4374V16.0247L38 11.012L28.2316 6ZM11.7984 29.1787C12.8358 29.1787 13.6468 30.0088 13.6468 31.0734C13.6468 32.138 12.8358 32.9703 11.7984 32.9703C10.761 32.9703 9.95219 32.138 9.95219 31.0734C9.95219 30.0088 10.761 29.1787 11.7984 29.1787Z" fill="#7F28AC"/>
</svg>
