<svg width="48" height="48" viewBox="0 0 48 48" fill="none" xmlns="http://www.w3.org/2000/svg">
<circle cx="24" cy="24" r="24" fill="#FFCC80"/>
<circle cx="24.5332" cy="24" r="16" fill="#FFE0B2"/>
<rect width="20" height="20" transform="translate(14.5332 14)" fill="#FFE0B2"/>
<path d="M22.8665 24C22.8665 23.0795 23.6127 22.3333 24.5332 22.3333C25.4537 22.3333 26.1999 23.0795 26.1999 24C26.1999 24.9205 25.4537 25.6667 24.5332 25.6667C23.6127 25.6667 22.8665 24.9205 22.8665 24Z" fill="white"/>
<path fill-rule="evenodd" clip-rule="evenodd" d="M24.5332 17.3333C22.1485 17.3333 20.2043 18.3873 18.7638 19.5895C17.3253 20.7902 16.339 22.1786 15.845 22.9607L15.825 22.9924C15.727 23.1467 15.5997 23.347 15.5354 23.6276C15.4834 23.8543 15.4834 24.1457 15.5354 24.3724C15.5997 24.653 15.727 24.8534 15.825 25.0076L15.845 25.0393C16.339 25.8214 17.3253 27.2099 18.7638 28.4105C20.2043 29.6127 22.1485 30.6667 24.5332 30.6667C26.9179 30.6667 28.8621 29.6127 30.3026 28.4105C31.7411 27.2099 32.7274 25.8214 33.2213 25.0393L33.2414 25.0077C33.3394 24.8534 33.4667 24.6531 33.531 24.3724C33.583 24.1457 33.583 23.8543 33.531 23.6276C33.4667 23.347 33.3394 23.1466 33.2414 22.9924L33.2213 22.9607C32.7274 22.1786 31.7411 20.7902 30.3026 19.5895C28.8621 18.3873 26.9179 17.3333 24.5332 17.3333ZM24.5332 20.6667C22.6922 20.6667 21.1999 22.1591 21.1999 24C21.1999 25.841 22.6922 27.3333 24.5332 27.3333C26.3741 27.3333 27.8665 25.841 27.8665 24C27.8665 22.1591 26.3741 20.6667 24.5332 20.6667Z" fill="white"/>
</svg>
