<svg width="39" height="39" viewBox="0 0 39 39" fill="none" xmlns="http://www.w3.org/2000/svg">
<path d="M19.6459 29.0149C20.0747 30.6153 19.125 32.2603 17.5246 32.6891C15.9242 33.118 14.2792 32.1682 13.8504 30.5678M6.05683 22.6134C5.66734 21.2152 6.07238 19.7036 7.10878 18.6875M16.1463 16.741C16.4505 16.1937 16.5507 15.5322 16.3759 14.8796C16.0185 13.5459 14.6477 12.7545 13.314 13.1118C11.9803 13.4692 11.1889 14.84 11.5462 16.1737C11.7211 16.8263 12.1386 17.349 12.6757 17.6709M24.319 17.7201C23.9572 16.3145 22.8506 15.2079 21.445 14.8461M21.4906 20.4454C21.1337 19.1133 20.1808 17.9993 18.8415 17.3486C17.5022 16.6978 15.8863 16.5636 14.3492 16.9755C12.8121 17.3874 11.4798 18.3115 10.6453 19.5447C9.81085 20.7779 9.54258 22.2191 9.89952 23.5512C10.4901 25.7553 10.3754 27.5137 10.0025 28.8498C9.5774 30.3727 9.36487 31.1341 9.42228 31.287C9.48798 31.4619 9.53549 31.5099 9.70973 31.5774C9.86202 31.6364 10.5018 31.465 11.7813 31.1222L23.6464 27.9429C24.9259 27.6001 25.5657 27.4286 25.6681 27.3014C25.7852 27.1558 25.8024 27.0905 25.7718 26.9061C25.7451 26.745 25.1803 26.1919 24.0508 25.0856C23.0597 24.1149 22.0812 22.6495 21.4906 20.4454Z" stroke="#7F28AC" stroke-width="1.5" stroke-linecap="round" stroke-linejoin="round"/>
<rect x="25" width="14" height="14" rx="7" fill="#F76864" fill-opacity="0.2"/>
<rect x="27" y="2" width="10" height="10" rx="5" fill="#F76864"/>
</svg>
